<svg xmlns="http://www.w3.org/2000/svg" viewBox="0 0 900 760" width="900" height="760"
     font-family="Arial, Helvetica, sans-serif">

  <defs>
    <marker id="arr" markerWidth="8" markerHeight="6" refX="7" refY="3" orient="auto">
      <polygon points="0 0,8 3,0 6" fill="#1A1A1A"/>
    </marker>
    <marker id="arr-gray" markerWidth="8" markerHeight="6" refX="7" refY="3" orient="auto">
      <polygon points="0 0,8 3,0 6" fill="#888888"/>
    </marker>
    <marker id="arr-w" markerWidth="8" markerHeight="6" refX="7" refY="3" orient="auto">
      <polygon points="0 0,8 3,0 6" fill="#1A1A1A"/>
    </marker>
  </defs>

  <!-- ══ Background ══════════════════════════════════════════════════════ -->
  <rect width="900" height="760" fill="#FFFFFF"/>

  <!-- ══ Title ═══════════════════════════════════════════════════════════ -->
  <text x="440" y="23" text-anchor="middle" font-size="17" font-weight="bold" fill="#1A1A1A">Entheome Genome Assembly Pipeline (EGAP)</text>

  <!-- ══ Section background bands ════════════════════════════════════════ -->

  <!-- Reads Pre-Processing  y=30–308 -->
  <rect x="0"   y="30"  width="820" height="278" fill="#F5F5F5" stroke="#CCCCCC" stroke-width="1"/>
  <rect x="820" y="30"  width="80"  height="278" fill="#E2E2E2" stroke="#CCCCCC" stroke-width="1"/>
  <text transform="rotate(-90,860,169)" x="860" y="169" text-anchor="middle" font-size="11" font-weight="bold" fill="#333">Reads Pre-Processing</text>

  <!-- Assembly  y=308–388 -->
  <rect x="0"   y="308" width="820" height="80"  fill="#EBEBEB" stroke="#CCCCCC" stroke-width="1"/>
  <rect x="820" y="308" width="80"  height="80"  fill="#D8D8D8" stroke="#CCCCCC" stroke-width="1"/>
  <text transform="rotate(-90,860,348)" x="860" y="348" text-anchor="middle" font-size="11" font-weight="bold" fill="#333">Assembly</text>

  <!-- Initial Assembly Assessment  y=388–462 -->
  <rect x="0"   y="388" width="820" height="74"  fill="#F5F5F5" stroke="#CCCCCC" stroke-width="1"/>
  <rect x="820" y="388" width="80"  height="74"  fill="#E2E2E2" stroke="#CCCCCC" stroke-width="1"/>
  <text transform="rotate(-90,860,425)" x="860" y="425" text-anchor="middle" font-size="10" font-weight="bold" fill="#333">Initial Assembly Assessment</text>

  <!-- connector row  y=462–524 -->
  <rect x="0"   y="462" width="820" height="62"  fill="#FAFAFA" stroke="#CCCCCC" stroke-width="1"/>
  <rect x="820" y="462" width="80"  height="62"  fill="#EBEBEB" stroke="#CCCCCC" stroke-width="1"/>

  <!-- Assembly Polishing  y=524–596 -->
  <rect x="0"   y="524" width="820" height="72"  fill="#EBEBEB" stroke="#CCCCCC" stroke-width="1"/>
  <rect x="820" y="524" width="80"  height="72"  fill="#D8D8D8" stroke="#CCCCCC" stroke-width="1"/>
  <text transform="rotate(-90,860,560)" x="860" y="560" text-anchor="middle" font-size="11" font-weight="bold" fill="#333">Assembly Polishing</text>

  <!-- Assembly Curation  y=596–652 -->
  <rect x="0"   y="596" width="820" height="56"  fill="#F5F5F5" stroke="#CCCCCC" stroke-width="1"/>
  <rect x="820" y="596" width="80"  height="56"  fill="#E2E2E2" stroke="#CCCCCC" stroke-width="1"/>
  <text transform="rotate(-90,860,624)" x="860" y="624" text-anchor="middle" font-size="11" font-weight="bold" fill="#333">Assembly Curation</text>

  <!-- Final Assembly Assessment  y=652–725 -->
  <rect x="0"   y="652" width="820" height="73"  fill="#EBEBEB" stroke="#CCCCCC" stroke-width="1"/>
  <rect x="820" y="652" width="80"  height="73"  fill="#D8D8D8" stroke="#CCCCCC" stroke-width="1"/>
  <text transform="rotate(-90,860,688)" x="860" y="688" text-anchor="middle" font-size="10" font-weight="bold" fill="#333">Final Assembly Assessment</text>

  <!-- ══ INPUT OVALS ═══════════════════════════════════════════════════════ -->

  <!-- HiFi PacBio Reads (yellow) -->
  <ellipse cx="88"  cy="76" rx="76" ry="31" fill="#F5A624" stroke="#C88010" stroke-width="2.5"/>
  <text x="88"  y="71" text-anchor="middle" font-size="11" font-weight="bold" fill="#1A1A1A">HiFi</text>
  <text x="88"  y="85" text-anchor="middle" font-size="11" font-weight="bold" fill="#1A1A1A">PacBio Reads</text>

  <!-- Raw ONT Reads (dark) -->
  <ellipse cx="272" cy="67" rx="68"  ry="28" fill="#1D3D5C" stroke="#122638" stroke-width="2.5"/>
  <text x="272" y="62" text-anchor="middle" font-size="11" font-weight="bold" fill="#FFFFFF">Raw ONT</text>
  <text x="272" y="76" text-anchor="middle" font-size="11" font-weight="bold" fill="#FFFFFF">Reads</text>

  <!-- Raw Illumina Reads (orange) -->
  <ellipse cx="706" cy="67" rx="86"  ry="28" fill="#E8701A" stroke="#B85412" stroke-width="2.5"/>
  <text x="706" y="62" text-anchor="middle" font-size="11" font-weight="bold" fill="#FFFFFF">Raw Illumina</text>
  <text x="706" y="76" text-anchor="middle" font-size="11" font-weight="bold" fill="#FFFFFF">Reads</text>

  <!-- ══ PREPROCESSING TOOL BOXES ══════════════════════════════════════════ -->

  <!-- Filtlong — PacBio (dark) -->
  <rect x="33"  y="122" width="112" height="40" rx="4" fill="#1D3D5C" stroke="#122638" stroke-width="2"/>
  <text x="89"  y="138" text-anchor="middle" font-size="10"   fill="#FFFFFF">Filtering</text>
  <text x="89"  y="153" text-anchor="middle" font-size="11.5" font-weight="bold" fill="#FFFFFF">Filtlong</text>

  <!-- Filtlong — ONT (dark) -->
  <rect x="210" y="112" width="124" height="40" rx="4" fill="#1D3D5C" stroke="#122638" stroke-width="2"/>
  <text x="272" y="128" text-anchor="middle" font-size="10"   fill="#FFFFFF">Filtering</text>
  <text x="272" y="143" text-anchor="middle" font-size="11.5" font-weight="bold" fill="#FFFFFF">Filtlong</text>

  <!-- Ratatosk — Error Correction (dark) -->
  <rect x="346" y="122" width="142" height="44" rx="4" fill="#1D3D5C" stroke="#122638" stroke-width="2"/>
  <text x="417" y="139" text-anchor="middle" font-size="10"   fill="#FFFFFF">Error Correction</text>
  <text x="417" y="156" text-anchor="middle" font-size="12"   font-weight="bold" fill="#FFFFFF">Ratatosk</text>

  <!-- BBMap — Deduplication (dark) -->
  <rect x="498" y="112" width="132" height="40" rx="4" fill="#1D3D5C" stroke="#122638" stroke-width="2"/>
  <text x="564" y="128" text-anchor="middle" font-size="10"   fill="#FFFFFF">Deduplication</text>
  <text x="564" y="143" text-anchor="middle" font-size="11.5" font-weight="bold" fill="#FFFFFF">BBMap</text>

  <!-- Trimmomatic — Adapter Removal (orange) -->
  <rect x="642" y="112" width="154" height="40" rx="4" fill="#E8701A" stroke="#B85412" stroke-width="2"/>
  <text x="719" y="128" text-anchor="middle" font-size="10"   fill="#FFFFFF">Adapter Removal</text>
  <text x="719" y="143" text-anchor="middle" font-size="12"   font-weight="bold" fill="#FFFFFF">Trimmomatic</text>

  <!-- ══ INTERMEDIATE DATA OVALS ══════════════════════════════════════════ -->

  <!-- Filtered PacBio (yellow) -->
  <ellipse cx="88"  cy="238" rx="76" ry="31" fill="#F5A624" stroke="#C88010" stroke-width="2.5"/>
  <text x="88"  y="233" text-anchor="middle" font-size="11" font-weight="bold" fill="#1A1A1A">Filtered</text>
  <text x="88"  y="247" text-anchor="middle" font-size="11" font-weight="bold" fill="#1A1A1A">PacBio</text>

  <!-- Corrected ONT (dark) -->
  <ellipse cx="272" cy="248" rx="76" ry="31" fill="#1D3D5C" stroke="#122638" stroke-width="2.5"/>
  <text x="272" y="243" text-anchor="middle" font-size="11" font-weight="bold" fill="#FFFFFF">Corrected</text>
  <text x="272" y="257" text-anchor="middle" font-size="11" font-weight="bold" fill="#FFFFFF">ONT</text>

  <!-- Clumped Illumina (orange) -->
  <ellipse cx="558" cy="258" rx="85"  ry="33" fill="#E8701A" stroke="#B85412" stroke-width="2.5"/>
  <text x="558" y="253" text-anchor="middle" font-size="11" font-weight="bold" fill="#FFFFFF">Clumped</text>
  <text x="558" y="267" text-anchor="middle" font-size="11" font-weight="bold" fill="#FFFFFF">Illumina</text>

  <!-- ══ ASSEMBLY BOXES ════════════════════════════════════════════════════ -->

  <!-- hifiasm (large yellow) -->
  <rect x="16"  y="316" width="152" height="58" rx="5" fill="#F5A624" stroke="#C88010" stroke-width="2.5"/>
  <text x="92"  y="350" text-anchor="middle" font-size="20" font-weight="bold" fill="#1A1A1A">hifiasm</text>

  <!-- Flye (dark) -->
  <rect x="194" y="320" width="118" height="50" rx="5" fill="#1D3D5C" stroke="#122638" stroke-width="2"/>
  <text x="253" y="349" text-anchor="middle" font-size="16" font-weight="bold" fill="#FFFFFF">Flye</text>

  <!-- SPAdes (dark) -->
  <rect x="324" y="320" width="118" height="50" rx="5" fill="#1D3D5C" stroke="#122638" stroke-width="2"/>
  <text x="383" y="349" text-anchor="middle" font-size="16" font-weight="bold" fill="#FFFFFF">SPAdes</text>

  <!-- MaSuRCA* (orange) -->
  <rect x="454" y="320" width="132" height="50" rx="5" fill="#E8701A" stroke="#B85412" stroke-width="2"/>
  <text x="520" y="349" text-anchor="middle" font-size="16" font-weight="bold" fill="#FFFFFF">MaSuRCA*</text>

  <!-- Dashed border around Flye/SPAdes/MaSuRCA -->
  <rect x="188" y="312" width="406" height="66" rx="6" fill="none" stroke="#888888" stroke-width="1.5" stroke-dasharray="6,4"/>

  <!-- ══ INITIAL ASSESSMENT BOXES ══════════════════════════════════════════ -->

  <!-- QUAST* (dark, large bold) -->
  <rect x="186" y="394" width="168" height="52" rx="5" fill="#1D3D5C" stroke="#122638" stroke-width="2.5"/>
  <text x="270" y="425" text-anchor="middle" font-size="19" font-weight="bold" fill="#FFFFFF">QUAST*</text>

  <!-- BUSCO (dark, large bold) -->
  <rect x="392" y="394" width="168" height="52" rx="5" fill="#1D3D5C" stroke="#122638" stroke-width="2.5"/>
  <text x="476" y="425" text-anchor="middle" font-size="19" font-weight="bold" fill="#FFFFFF">BUSCO</text>

  <!-- ══ BEST INITIAL ASSEMBLY ══════════════════════════════════════════════ -->
  <ellipse cx="476" cy="490" rx="118" ry="36" fill="#FFFFFF" stroke="#1D3D5C" stroke-width="2.5"/>
  <text x="476" y="482" text-anchor="middle" font-size="12" font-weight="bold" fill="#1A1A1A">Best Initial</text>
  <text x="476" y="496" text-anchor="middle" font-size="12" font-weight="bold" fill="#1A1A1A">Assembly</text>
  <!-- small criteria text -->
  <text x="476" y="465" text-anchor="middle" font-size="8" fill="#666666">Based on:</text>
  <text x="476" y="508" text-anchor="middle" font-size="7.5" fill="#666666">Highest BUSCO Completion · Largest N50 · Fewest Total Contigs</text>

  <!-- ══ POLISHING BOXES ════════════════════════════════════════════════════ -->

  <!-- minimap2 / Racon pass 1 (green) -->
  <rect x="162" y="530" width="158" height="54" rx="5" fill="#3E7534" stroke="#2C5726" stroke-width="2"/>
  <text x="241" y="550" text-anchor="middle" font-size="10.5" fill="#FFFFFF">minimap2</text>
  <text x="241" y="565" text-anchor="middle" font-size="12"   font-weight="bold" fill="#FFFFFF">Racon</text>

  <!-- minimap2 / Racon pass 2 (green) -->
  <rect x="330" y="530" width="158" height="54" rx="5" fill="#3E7534" stroke="#2C5726" stroke-width="2"/>
  <text x="409" y="550" text-anchor="middle" font-size="10.5" fill="#FFFFFF">minimap2</text>
  <text x="409" y="565" text-anchor="middle" font-size="12"   font-weight="bold" fill="#FFFFFF">Racon</text>

  <!-- bwa / samtools / Pilon (yellow) -->
  <rect x="498" y="524" width="174" height="62" rx="5" fill="#F5A624" stroke="#C88010" stroke-width="2"/>
  <text x="585" y="542" text-anchor="middle" font-size="10"   fill="#1A1A1A">bwa  ·  samtools</text>
  <text x="585" y="556" text-anchor="middle" font-size="10"   fill="#1A1A1A">bamtools</text>
  <text x="585" y="572" text-anchor="middle" font-size="13"   font-weight="bold" fill="#1A1A1A">Pilon</text>

  <!-- ══ CURATION BOXES ════════════════════════════════════════════════════ -->

  <!-- purge_dups -->
  <rect x="20"  y="601" width="98"  height="36" rx="4" fill="#3E7534" stroke="#2C5726" stroke-width="2"/>
  <text x="69"  y="623" text-anchor="middle" font-size="10.5" font-weight="bold" fill="#FFFFFF">purge_dups</text>

  <!-- RagTag** (1) -->
  <rect x="122" y="601" width="90"  height="36" rx="4" fill="#3E7534" stroke="#2C5726" stroke-width="2"/>
  <text x="167" y="623" text-anchor="middle" font-size="10.5" font-weight="bold" fill="#FFFFFF">RagTag**</text>

  <!-- TGS-GapCloser -->
  <rect x="216" y="601" width="122" height="36" rx="4" fill="#3E7534" stroke="#2C5726" stroke-width="2"/>
  <text x="277" y="623" text-anchor="middle" font-size="10.5" font-weight="bold" fill="#FFFFFF">TGS-GapCloser</text>

  <!-- RagTag** (2) -->
  <rect x="342" y="601" width="90"  height="36" rx="4" fill="#3E7534" stroke="#2C5726" stroke-width="2"/>
  <text x="387" y="623" text-anchor="middle" font-size="10.5" font-weight="bold" fill="#FFFFFF">RagTag**</text>

  <!-- Abyss-Sealer -->
  <rect x="436" y="601" width="118" height="36" rx="4" fill="#3E7534" stroke="#2C5726" stroke-width="2"/>
  <text x="495" y="623" text-anchor="middle" font-size="10.5" font-weight="bold" fill="#FFFFFF">Abyss-Sealer</text>

  <!-- ══ FINAL ASSESSMENT BOXES ════════════════════════════════════════════ -->

  <!-- QUAST* final (dark) -->
  <rect x="186" y="660" width="168" height="52" rx="5" fill="#1D3D5C" stroke="#122638" stroke-width="2.5"/>
  <text x="270" y="691" text-anchor="middle" font-size="19" font-weight="bold" fill="#FFFFFF">QUAST*</text>

  <!-- BUSCO final (dark) -->
  <rect x="392" y="660" width="168" height="52" rx="5" fill="#1D3D5C" stroke="#122638" stroke-width="2.5"/>
  <text x="476" y="691" text-anchor="middle" font-size="19" font-weight="bold" fill="#FFFFFF">BUSCO</text>

  <!-- ══ ARROWS — PREPROCESSING ═══════════════════════════════════════════ -->

  <!-- HiFi PacBio → Filtlong/PacBio -->
  <line x1="88"  y1="107" x2="88"  y2="120" stroke="#1A1A1A" stroke-width="2" marker-end="url(#arr)"/>

  <!-- Filtlong/PacBio → Filtered PacBio -->
  <line x1="88"  y1="162" x2="88"  y2="205" stroke="#1A1A1A" stroke-width="2" marker-end="url(#arr)"/>

  <!-- Raw ONT → Filtlong/ONT -->
  <line x1="272" y1="95"  x2="272" y2="110" stroke="#1A1A1A" stroke-width="2" marker-end="url(#arr)"/>

  <!-- Filtlong/ONT right → Ratatosk left  (angled connector) -->
  <polyline points="334,132 340,132 340,144 346,144" fill="none" stroke="#1A1A1A" stroke-width="2" marker-end="url(#arr)"/>

  <!-- Raw Illumina → Trimmomatic -->
  <line x1="706" y1="95"  x2="706" y2="110" stroke="#1A1A1A" stroke-width="2" marker-end="url(#arr)"/>

  <!-- Trimmomatic → BBMap  (arrow going LEFT) -->
  <line x1="642" y1="132" x2="632" y2="132" stroke="#1A1A1A" stroke-width="2" marker-end="url(#arr)"/>

  <!-- BBMap → Ratatosk  (arrow going LEFT) -->
  <line x1="498" y1="138" x2="490" y2="142" stroke="#1A1A1A" stroke-width="2" marker-end="url(#arr)"/>

  <!-- BBMap → Clumped Illumina -->
  <polyline points="564,152 564,168 558,168 558,224" fill="none" stroke="#1A1A1A" stroke-width="2" marker-end="url(#arr)"/>

  <!-- Ratatosk → Corrected ONT  (L-shape down-left) -->
  <polyline points="417,166 417,195 272,195 272,217" fill="none" stroke="#1A1A1A" stroke-width="2" marker-end="url(#arr)"/>

  <!-- ══ Filtered PacBio → hifiasm ══════════════════════════════════════ -->
  <line x1="88" y1="269" x2="88" y2="314" stroke="#1A1A1A" stroke-width="2" marker-end="url(#arr)"/>

  <!-- ══ Corrected ONT → assemblers ═════════════════════════════════════ -->
  <!-- Corrected ONT bottom → down to assembly row, then branches -->
  <polyline points="272,279 272,308" fill="none" stroke="#1A1A1A" stroke-width="2" marker-end="url(#arr)"/>
  <!-- ONT → Flye (already covered above, ONT is at x=272 ≈ Flye center x=253) -->
  <!-- Branch left from 272 to Flye -->
  <polyline points="272,296 253,296 253,318" fill="none" stroke="#1A1A1A" stroke-width="2" marker-end="url(#arr)"/>
  <!-- Branch to SPAdes (x=383) -->
  <polyline points="272,296 383,296 383,318" fill="none" stroke="#1A1A1A" stroke-width="2" marker-end="url(#arr)"/>
  <!-- Branch to MaSuRCA (x=520) -->
  <polyline points="272,296 520,296 520,318" fill="none" stroke="#1A1A1A" stroke-width="2" marker-end="url(#arr)"/>

  <!-- ══ Clumped Illumina → assemblers (DASHED) ═══════════════════════════ -->
  <!-- Dashed trunk going up from Clumped Illumina to y=310 -->
  <polyline points="558,225 558,308" fill="none" stroke="#1A1A1A" stroke-width="1.5" stroke-dasharray="7,4" marker-end="url(#arr)"/>
  <!-- Dashed to hifiasm -->
  <polyline points="558,296 92,296 92,314" fill="none" stroke="#1A1A1A" stroke-width="1.5" stroke-dasharray="7,4" marker-end="url(#arr)"/>
  <!-- (Flye/SPAdes/MaSuRCA already get Illumina via the trunk above at y=308 near their tops) -->

  <!-- ══ Assemblers → QUAST (initial) ══════════════════════════════════ -->
  <!-- Flye bottom → QUAST -->
  <polyline points="253,370 253,386 270,386 270,392" fill="none" stroke="#1A1A1A" stroke-width="2" marker-end="url(#arr)"/>
  <!-- SPAdes bottom → QUAST -->
  <polyline points="383,370 383,386 270,386" fill="none" stroke="#1A1A1A" stroke-width="2"/>
  <!-- MaSuRCA bottom → QUAST -->
  <polyline points="520,370 520,386 270,386" fill="none" stroke="#1A1A1A" stroke-width="2"/>
  <!-- hifiasm (dashed) → BUSCO -->
  <polyline points="92,374 92,386 476,386 476,392" fill="none" stroke="#1A1A1A" stroke-width="1.5" stroke-dasharray="7,4" marker-end="url(#arr)"/>

  <!-- ══ QUAST → BUSCO ══════════════════════════════════════════════════ -->
  <line x1="354" y1="420" x2="390" y2="420" stroke="#1A1A1A" stroke-width="2" marker-end="url(#arr)"/>

  <!-- ══ BUSCO → Best Initial Assembly ════════════════════════════════ -->
  <line x1="476" y1="446" x2="476" y2="454" stroke="#1A1A1A" stroke-width="2" marker-end="url(#arr)"/>

  <!-- ══ Best Initial Assembly → Polishing (gray dashed) ══════════════ -->
  <!-- Best Assembly left → racon 1 (gray dashed arc going left) -->
  <polyline points="358,490 320,490 320,524 241,524 241,528"
            fill="none" stroke="#888888" stroke-width="1.5" stroke-dasharray="6,4" marker-end="url(#arr-gray)"/>
  <!-- Best Assembly → racon 2 (gray dashed) -->
  <polyline points="476,526 476,524 409,524 409,528"
            fill="none" stroke="#888888" stroke-width="1.5" stroke-dasharray="6,4" marker-end="url(#arr-gray)"/>
  <!-- Best Assembly right → Pilon (gray dashed) -->
  <polyline points="594,490 650,490 650,524 585,524 585,528"
            fill="none" stroke="#888888" stroke-width="1.5" stroke-dasharray="6,4" marker-end="url(#arr-gray)"/>

  <!-- Corrected ONT (gray dashed) feeds polishing -->
  <polyline points="196,248 150,248 150,540 160,540"
            fill="none" stroke="#888888" stroke-width="1.5" stroke-dasharray="6,4" marker-end="url(#arr-gray)"/>

  <!-- Clumped Illumina → Pilon (gray dashed) -->
  <polyline points="558,291 558,504 585,504 585,524"
            fill="none" stroke="#888888" stroke-width="1.5" stroke-dasharray="6,4" marker-end="url(#arr-gray)"/>

  <!-- ══ Polishing chain ════════════════════════════════════════════════ -->
  <!-- Racon 1 → Racon 2 -->
  <line x1="320" y1="557" x2="328" y2="557" stroke="#1A1A1A" stroke-width="2" marker-end="url(#arr)"/>
  <!-- Racon 2 → Pilon -->
  <line x1="488" y1="557" x2="496" y2="557" stroke="#1A1A1A" stroke-width="2" marker-end="url(#arr)"/>

  <!-- ══ Pilon → purge_dups ═════════════════════════════════════════════ -->
  <polyline points="585,586 585,594 69,594 69,599" fill="none" stroke="#1A1A1A" stroke-width="2" marker-end="url(#arr)"/>

  <!-- ══ Curation chain ════════════════════════════════════════════════ -->
  <line x1="118" y1="619" x2="120"  y2="619" stroke="#1A1A1A" stroke-width="2" marker-end="url(#arr)"/>
  <line x1="212" y1="619" x2="214"  y2="619" stroke="#1A1A1A" stroke-width="2" marker-end="url(#arr)"/>
  <line x1="338" y1="619" x2="340"  y2="619" stroke="#1A1A1A" stroke-width="2" marker-end="url(#arr)"/>
  <line x1="432" y1="619" x2="434"  y2="619" stroke="#1A1A1A" stroke-width="2" marker-end="url(#arr)"/>

  <!-- ══ Curation → Final Assessment ══════════════════════════════════ -->
  <!-- From Abyss-Sealer down to QUAST/BUSCO final -->
  <polyline points="495,637 495,648 270,648 270,658" fill="none" stroke="#1A1A1A" stroke-width="2" marker-end="url(#arr)"/>
  <!-- Also to BUSCO final (dashed — hifiasm/MaSuRCA path) -->
  <polyline points="495,648 476,648 476,658" fill="none" stroke="#1A1A1A" stroke-width="1.5" stroke-dasharray="7,4" marker-end="url(#arr)"/>

  <!-- QUAST final → BUSCO final -->
  <line x1="354" y1="686" x2="390" y2="686" stroke="#1A1A1A" stroke-width="2" marker-end="url(#arr)"/>

  <!-- ══ Footnotes ══════════════════════════════════════════════════════ -->
  <text x="14" y="735" font-size="10" fill="#444444">*Uses Reference Assembly if provided</text>
  <text x="14" y="750" font-size="10" fill="#444444">**Will be Skipped if Reference Assembly is NOT provided</text>

</svg>
